<svg version="1.2" xmlns="http://www.w3.org/2000/svg" viewBox="0 0 561 527" width="561" height="527">
	<title>lumiku sin fondo</title>
	<style>
		.s0 { fill: #fab69b;stroke: #7e603f;stroke-linecap: round;stroke-linejoin: round;stroke-width: 5 } 
		.s1 { fill: #fab69b;stroke: #7e603f;stroke-miterlimit:10;stroke-width: 5 } 
		.s2 { fill: #ffebc9;stroke: #7e603f;stroke-linecap: round;stroke-linejoin: round;stroke-width: 5 } 
		.s3 { fill: #ffebc9;stroke: #7e603f;stroke-miterlimit:10;stroke-width: 5 } 
		.s4 { fill: #fddc82;stroke: #7e603f;stroke-linecap: round;stroke-linejoin: round;stroke-width: 5 } 
		.s5 { fill: #fddc82;stroke: #7e603f;stroke-miterlimit:10;stroke-width: 5 } 
	</style>
	<g id="Layer 1">
		<path id="Shape 2" fill-rule="evenodd" class="s0" d="m127.8 157.1c0 0-106.1 18.2-109.4 142.8-3.3 124.7 132.2 163.8 171.6 170.1 39.4 6.3 56.8-2.9 62.5-24 4.8-18.1-4.3-31-28.3-44.2-20.6-11.3-44.2-22.7-67-39.9-50.8-38.5-41.3-85.3-42-84.5-5.9 67 65.2 100.2 81.8 109.4 26.4 14.6 44.1-15.9 50.1-33.6 59.9-40.2 62.9-47.2 62.9-47.2 0 0-12.7-41.8-36.9-73.6-14.6-18.9-23.6-27.9-46.1-47.4-3-2.6-74.7-5.1-99.2-27.9z"/>
		<path id="Shape 1" fill-rule="evenodd" class="s1" d="m193 187c-46.5 0-84-37.8-84-84.5 0-46.7 37.5-84.5 84-84.5 46.5 0 84 37.8 84 84.5 0 46.7-37.5 84.5-84 84.5z"/>
		<path id="Shape 4" fill-rule="evenodd" class="s2" d="m474.5 217c0 0 86.7 35.1 73.5 143-13.2 107.9-145.1 126-176.8 122.1-14.6-1.8-44.6-6.4-45.7-30-1.2-27.4 14.4-38.2 70.8-51.3 17.7-4.2 32.4-12.4 42.9-25.8 16.2-20.9 21.2-56 21-55.9-0.2 0-4.3 37.7-23 57.9-14.9 16-40.4 24.2-49.5 25.9-33.1 6.1-61.7-28.9-61.7-28.9 0 0-40.6-128.6 16-137 56.6-8.4 132.5-20 132.5-20z"/>
		<path id="Shape 1 copy" fill-rule="evenodd" class="s3" d="m399.7 260.4c-44.1 0-79.7-35.9-79.7-80.2 0-44.4 35.6-80.2 79.7-80.2 44.1 0 79.7 35.8 79.7 80.2 0 44.3-35.6 80.2-79.7 80.2z"/>
		<path id="Shape 3" fill-rule="evenodd" class="s4" d="m284.7 517.9c0 0-31.1-36.6-67.4-46 32.9-1.7 48.4-40 19.7-61.1-9.3-6.9-18.9-13.3-37.4-22.6 13.8-11.5 30.5-25.8 43.6-24 15.6 2.2 68.9 11.3 94.8-0.2 15.8-7.1 48.7 39.1 48.7 39.1 0 0-66 10.2-60.9 47.3 3.1 22.2 21.9 25.7 32.9 29.5-5.1 2-58.6 14.7-74 38z"/>
		<path id="Shape 1 copy 2" fill-rule="evenodd" class="s5" d="m288.6 381.2c-41.8 0-75.6-34-75.6-76.1 0-42.1 33.8-76.1 75.6-76.1 41.9 0 75.7 34 75.7 76.1 0 42.1-33.8 76.1-75.7 76.1z"/>
	</g>
</svg>